
<svg width="150" height="50" viewBox="0 0 150 50" fill="none" xmlns="http://www.w3.org/2000/svg">
<rect width="149.486" height="49.8288" transform="translate(0.513672)" fill="white"/>
<g clip-path="url(#clip0_477_29552)">
<path d="M51.9596 32.7894H48.4832V22.722H45.3438V19.8684H55.088V22.722H51.9596V32.7894Z" fill="#1B2034"/>
<mask id="mask0_477_29552" style="mask-type:luminance" maskUnits="userSpaceOnUse" x="2" y="2" width="152" height="47">
<path d="M153.082 2.56848H2.56836V48.4447H153.082V2.56848Z" fill="white"/>
</mask>
<g mask="url(#mask0_477_29552)">
<path d="M62.7407 22.5992C63.1109 22.5992 63.4441 22.6364 63.7884 22.7071L63.4812 25.9699C58.7275 24.8129 60.4713 30.107 60.164 32.7931H56.7246V22.7778H59.2828L59.8197 24.3776H59.9863C60.4972 23.3954 61.6523 22.5918 62.7407 22.603" fill="#1B2034"/>
<path d="M71.6772 32.7894L71.0182 31.4649H70.9479C65.0613 37.1683 60.3447 25.5383 70.6221 26.4201C70.6147 24.1953 68.2564 25.1291 66.6385 25.7839L65.6463 23.5033C75.124 20.2926 74.1577 25.5495 74.0614 32.7931H71.6772V32.7894ZM69.1264 30.5274C70.3629 30.5758 70.7924 29.3703 70.6406 28.3175L69.8483 28.3547C68.0787 28.1501 67.416 30.4269 69.1264 30.5274Z" fill="#1B2034"/>
<path d="M80.9373 32.9642C72.2741 32.6852 75.5061 18.9607 84.4729 23.3582L83.4622 25.9141C77.6571 22.8076 78.1236 33.3772 84.1286 29.3331V32.0825C83.2437 32.6703 82.1775 32.968 80.9373 32.968" fill="#1B2034"/>
<path d="M89.4451 27.1604C90.2003 25.8731 91.8737 23.9088 92.7438 22.7778H96.5792L93.1214 27.0376L96.7977 32.7931H92.8659L90.6853 29.2029L89.5673 30.0586V32.7894H86.1094V19.035H89.5673C89.5302 20.9324 89.6931 25.3448 89.3747 27.1567H89.4451V27.1604Z" fill="#1B2034"/>
</g>
<path d="M107.057 32.886C105.476 32.886 104.276 32.4581 103.462 31.5987C102.647 30.743 102.236 29.5115 102.236 27.9043C102.236 26.2971 102.677 25.0433 103.558 24.1579C104.439 23.2724 105.694 22.8297 107.319 22.8297C108.441 22.8297 109.496 23.0753 110.485 23.5664L109.504 26.0441C109.1 25.8656 108.726 25.7242 108.386 25.62C108.045 25.5158 107.69 25.46 107.319 25.46C106.779 25.46 106.361 25.6721 106.064 26.0962C105.768 26.5203 105.62 27.1156 105.62 27.8857C105.62 29.4409 106.19 30.2184 107.334 30.2184C108.312 30.2184 109.248 29.932 110.148 29.3627V32.0303C109.289 32.6032 108.256 32.886 107.053 32.886H107.057Z" fill="#1B2034"/>
<path d="M121.718 27.8412C121.718 29.4298 121.293 30.6687 120.445 31.5578C119.593 32.447 118.405 32.8897 116.876 32.8897C115.347 32.8897 114.24 32.4358 113.374 31.5281C112.507 30.6203 112.074 29.3926 112.074 27.8412C112.074 26.2897 112.5 25.0285 113.348 24.1505C114.196 23.2725 115.391 22.8335 116.924 22.8335C117.876 22.8335 118.712 23.0344 119.442 23.4436C120.171 23.8492 120.73 24.4295 121.126 25.1885C121.522 25.9475 121.718 26.8292 121.718 27.8412ZM115.462 27.8412C115.462 28.6745 115.573 29.3107 115.795 29.7497C116.017 30.1887 116.387 30.4045 116.913 30.4045C117.439 30.4045 117.794 30.185 118.009 29.7497C118.224 29.3144 118.327 28.6782 118.327 27.8412C118.327 27.0041 118.22 26.3865 118.001 25.9661C117.787 25.5419 117.417 25.3299 116.891 25.3299C116.365 25.3299 116.013 25.5382 115.791 25.9586C115.569 26.379 115.458 27.0041 115.458 27.8412H115.462Z" fill="#1B2034"/>
<path d="M135.905 32.7148V27.4356C135.905 26.7771 135.816 26.286 135.634 25.9586C135.457 25.6312 135.172 25.4675 134.787 25.4675C134.276 25.4675 133.898 25.687 133.661 26.126C133.424 26.565 133.302 27.2533 133.302 28.1908V32.7148H129.959V27.4356C129.959 26.7771 129.874 26.286 129.703 25.9586C129.533 25.6312 129.255 25.4675 128.878 25.4675C128.356 25.4675 127.975 25.7019 127.734 26.1706C127.497 26.6394 127.375 27.4058 127.375 28.4661V32.7185H124.039V23.0083H126.557L126.975 24.2063H127.171C127.427 23.7598 127.797 23.4213 128.286 23.1869C128.77 22.9525 129.326 22.8372 129.944 22.8372C131.336 22.8372 132.314 23.2613 132.876 24.1133H133.139C133.413 23.7115 133.791 23.3989 134.279 23.1757C134.764 22.9488 135.301 22.8372 135.886 22.8372C137.03 22.8372 137.874 23.1311 138.418 23.7189C138.963 24.3067 139.237 25.2033 139.237 26.4013V32.7185H135.901L135.905 32.7148Z" fill="#1B2034"/>
<mask id="mask1_477_29552" style="mask-type:luminance" maskUnits="userSpaceOnUse" x="2" y="2" width="152" height="47">
<path d="M153.082 2.56848H2.56836V48.4447H153.082V2.56848Z" fill="white"/>
</mask>
<g mask="url(#mask1_477_29552)">
<path d="M37.7027 36.6734C37.7434 27.7518 -3.02909 20.4673 9.87314 10.9766C8.19233 16.0512 27.1773 22.5507 31.1128 25.5494C35.0815 28.0978 41.9751 31.1151 37.91 36.7254C37.8397 36.7068 37.7694 36.692 37.7027 36.6734Z" fill="#1B2034"/>
<path d="M5.70793 15.7758C5.85231 24.9354 44.5479 32.3018 33.519 41.1452C34.6482 32.8747 -3.65498 27.6773 5.70793 15.7758Z" fill="#1B2034"/>
<path d="M14.7075 8.02625C11.3348 14.0682 45.8025 19.3586 40.5305 30.81C39.8604 22.6251 0.231874 13.8896 14.7075 8.02625Z" fill="#1B2034"/>
<path d="M3.23069 21.9146C4.42281 30.118 40.6231 38.4182 28.8241 43.7384C29.5127 40.7584 23.4596 39.0433 21.4123 37.8081C14.9556 34.1584 0.731694 31.8964 3.23069 21.9146Z" fill="#1B2034"/>
<path d="M18.7693 6.72412C17.8622 8.31273 21.7385 9.22423 22.7084 10.013C27.1955 11.9624 31.5938 14.1203 35.9846 16.2855C38.9427 17.7774 41.0492 20.4115 41.1566 23.838C39.8127 18.0304 6.25948 8.97868 18.7693 6.72412Z" fill="#1B2034"/>
<path d="M3.28886 29.2958C4.65868 34.2513 34.2801 42.5888 24.8876 44.7726C24.5396 43.4184 23.3808 43.1431 22.4034 42.7227C16.08 39.3818 4.26995 37.7857 3.28516 29.2958" fill="#1B2034"/>
<path d="M38.9339 16.6167C33.2658 12.2267 26.1131 10.8427 20.0267 7.31947C19.0345 5.32533 25.021 8.21236 25.7133 8.4021C30.3337 10.679 36.4571 11.5458 38.9302 16.6167" fill="#1B2034"/>
<path d="M5.95898 36.1377C11.2865 39.899 17.8061 41.4132 23.3742 44.6462C23.3594 44.7132 23.3409 44.7802 23.3261 44.8509C18.1948 43.891 8.50241 40.9891 5.95898 36.1377Z" fill="#1B2034"/>
<path d="M23.2852 6.71667C27.1466 7.46448 30.9747 8.28668 34.0438 10.7235C30.5415 9.41769 26.9133 8.06718 23.2852 6.71667Z" fill="#1B2034"/>
</g>
<mask id="mask2_477_29552" style="mask-type:luminance" maskUnits="userSpaceOnUse" x="99" y="2" width="1" height="47">
<path d="M99.1055 2.56848V48.4447C99.1055 48.4447 99.857 48.4447 99.8644 48.4447V2.56848H99.1055Z" fill="white"/>
</mask>
<g mask="url(#mask2_477_29552)">
<mask id="mask3_477_29552" style="mask-type:luminance" maskUnits="userSpaceOnUse" x="98" y="2" width="3" height="47">
<path d="M99.8622 2.55707L98.1484 2.59314L99.1046 48.463L100.818 48.427L99.8622 2.55707Z" fill="white"/>
</mask>
<g mask="url(#mask3_477_29552)">
<path d="M100.819 3.57273L98.1465 3.62854V2.55334H100.819V3.57273Z" fill="#114B9C"/>
<path d="M100.819 3.81098L98.1465 3.86679V3.62868L100.819 3.57288V3.81098Z" fill="#114B9C"/>
<path d="M100.819 4.04902L98.1465 4.10482V3.86672L100.819 3.81091V4.04902Z" fill="#124C9C"/>
<path d="M100.819 4.28706L98.1465 4.34286V4.10476L100.819 4.04895V4.28706Z" fill="#124D9D"/>
<path d="M100.819 4.52522L98.1465 4.58102V4.34292L100.819 4.28711V4.52522Z" fill="#134E9D"/>
<path d="M100.819 4.76337L98.1465 4.81918V4.58107L100.819 4.52527V4.76337Z" fill="#134E9E"/>
<path d="M100.819 5.00153L98.1465 5.05734V4.81923L100.819 4.76343V5.00153Z" fill="#134F9E"/>
<path d="M100.819 5.23957L98.1465 5.29538V5.05727L100.819 5.00146V5.23957Z" fill="#14509F"/>
<path d="M100.819 5.47773L98.1465 5.53354V5.29543L100.819 5.23962V5.47773Z" fill="#14519F"/>
<path d="M100.819 5.71589L98.1465 5.77169V5.53359L100.819 5.47778V5.71589Z" fill="#15519F"/>
<path d="M100.819 5.95393L98.1465 6.00973V5.77163L100.819 5.71582V5.95393Z" fill="#1552A0"/>
<path d="M100.819 6.19208L98.1465 6.24789V6.00979L100.819 5.95398V6.19208Z" fill="#1553A0"/>
<path d="M100.819 6.43012L98.1465 6.48593V6.24782L100.819 6.19202V6.43012Z" fill="#1554A1"/>
<path d="M100.819 6.66828L98.1465 6.72409V6.48598L100.819 6.43018V6.66828Z" fill="#1654A1"/>
<path d="M100.819 6.90632L98.1465 6.96212V6.72402L100.819 6.66821V6.90632Z" fill="#1655A2"/>
<path d="M100.819 7.14448L98.1465 7.20028V6.96218L100.819 6.90637V7.14448Z" fill="#1656A2"/>
<path d="M100.819 7.38251L98.1465 7.43832V7.20022L100.819 7.14441V7.38251Z" fill="#1757A3"/>
<path d="M100.819 7.62067L98.1465 7.67648V7.43837L100.819 7.38257V7.62067Z" fill="#1757A3"/>
<path d="M100.819 7.85883L98.1465 7.91464V7.67653L100.819 7.62073V7.85883Z" fill="#1758A4"/>
<path d="M100.819 8.09687L98.1465 8.15268V7.91457L100.819 7.85876V8.09687Z" fill="#1859A4"/>
<path d="M100.819 8.33503L98.1465 8.39084V8.15273L100.819 8.09692V8.33503Z" fill="#185AA5"/>
<path d="M100.819 8.57307L98.1465 8.62887V8.39077L100.819 8.33496V8.57307Z" fill="#185AA5"/>
<path d="M100.819 8.81123L98.1465 8.86703V8.62893L100.819 8.57312V8.81123Z" fill="#185BA6"/>
<path d="M100.819 9.04926L98.1465 9.10507V8.86696L100.819 8.81116V9.04926Z" fill="#195CA6"/>
<path d="M100.819 9.28742L98.1465 9.34323V9.10512L100.819 9.04932V9.28742Z" fill="#195DA7"/>
<path d="M100.819 9.52546L98.1465 9.58127V9.34316L100.819 9.28735V9.52546Z" fill="#195DA7"/>
<path d="M100.819 9.76362L98.1465 9.81942V9.58132L100.819 9.52551V9.76362Z" fill="#1A5EA8"/>
<path d="M100.819 10.0018L98.1465 10.0576V9.81948L100.819 9.76367V10.0018Z" fill="#1A5FA8"/>
<path d="M100.819 10.2398L98.1465 10.2956V10.0575L100.819 10.0017V10.2398Z" fill="#1A60A9"/>
<path d="M100.819 10.478L98.1465 10.5338V10.2957L100.819 10.2399V10.478Z" fill="#1B60A9"/>
<path d="M100.819 10.716L98.1465 10.7718V10.5337L100.819 10.4779V10.716Z" fill="#1B61AA"/>
<path d="M100.819 10.9542L98.1465 11.01V10.7719L100.819 10.7161V10.9542Z" fill="#1C62AA"/>
<path d="M100.819 11.1922L98.1465 11.2517V11.0099L100.819 10.9541V11.1922Z" fill="#1C62AB"/>
<path d="M100.819 11.4304L98.1465 11.4899V11.2518L100.819 11.1923V11.4304Z" fill="#1C63AB"/>
<path d="M100.819 11.6684L98.1465 11.7279V11.4898L100.819 11.4303V11.6684Z" fill="#1D64AC"/>
<path d="M100.819 11.9066L98.1465 11.9661V11.728L100.819 11.6685V11.9066Z" fill="#1D65AC"/>
<path d="M100.819 12.1447L98.1465 12.2042V11.9661L100.819 11.9066V12.1447Z" fill="#1E65AD"/>
<path d="M100.819 12.3828L98.1465 12.4423V12.2042L100.819 12.1447V12.3828Z" fill="#1E66AD"/>
<path d="M100.819 12.6209L98.1465 12.6804V12.4423L100.819 12.3828V12.6209Z" fill="#1F67AE"/>
<path d="M100.819 12.8627L98.1465 12.9185V12.6804L100.819 12.6208V12.8627Z" fill="#1F68AE"/>
<path d="M100.819 13.1009L98.1465 13.1567V12.9186L100.819 12.8628V13.1009Z" fill="#2068AF"/>
<path d="M100.819 13.3389L98.1465 13.3947V13.1566L100.819 13.1008V13.3389Z" fill="#2069AF"/>
<path d="M100.819 13.5771L98.1465 13.6329V13.3948L100.819 13.339V13.5771Z" fill="#216AB0"/>
<path d="M100.819 13.8151L98.1465 13.8709V13.6328L100.819 13.577V13.8151Z" fill="#216BB0"/>
<path d="M100.819 14.0533L98.1465 14.1091V13.871L100.819 13.8152V14.0533Z" fill="#226BB1"/>
<path d="M100.819 14.2913L98.1465 14.3471V14.109L100.819 14.0532V14.2913Z" fill="#226CB1"/>
<path d="M100.819 14.5295L98.1465 14.5853V14.3472L100.819 14.2914V14.5295Z" fill="#236DB2"/>
<path d="M100.819 14.7676L98.1465 14.8235V14.5853L100.819 14.5295V14.7676Z" fill="#236EB2"/>
<path d="M100.819 15.0057L98.1465 15.0615V14.8234L100.819 14.7676V15.0057Z" fill="#246FB3"/>
<path d="M100.819 15.2438L98.1465 15.2996V15.0615L100.819 15.0057V15.2438Z" fill="#246FB3"/>
<path d="M100.819 15.4819L98.1465 15.5377V15.2996L100.819 15.2438V15.4819Z" fill="#2570B4"/>
<path d="M100.819 15.72L98.1465 15.7758V15.5377L100.819 15.4819V15.72Z" fill="#2571B4"/>
<path d="M100.819 15.9581L98.1465 16.0139V15.7758L100.819 15.72V15.9581Z" fill="#2672B5"/>
<path d="M100.819 16.1961L98.1465 16.2519V16.0138L100.819 15.958V16.1961Z" fill="#2672B5"/>
<path d="M100.819 16.4342L98.1465 16.49V16.2519L100.819 16.196V16.4342Z" fill="#2773B6"/>
<path d="M100.819 16.6723L98.1465 16.7281V16.49L100.819 16.4342V16.6723Z" fill="#2874B6"/>
<path d="M100.819 16.9105L98.1465 16.9663V16.7282L100.819 16.6724V16.9105Z" fill="#2875B6"/>
<path d="M100.819 17.1485L98.1465 17.2043V16.9662L100.819 16.9104V17.1485Z" fill="#2975B7"/>
<path d="M100.819 17.3867L98.1465 17.4425V17.2044L100.819 17.1486V17.3867Z" fill="#2976B7"/>
<path d="M100.819 17.6248L98.1465 17.6806V17.4425L100.819 17.3867V17.6248Z" fill="#2A77B8"/>
<path d="M100.819 17.863L98.1465 17.9188V17.6807L100.819 17.6249V17.863Z" fill="#2A78B8"/>
<path d="M100.819 18.101L98.1465 18.1568V17.9187L100.819 17.8629V18.101Z" fill="#2B78B9"/>
<path d="M100.819 18.3392L98.1465 18.395V18.1569L100.819 18.1011V18.3392Z" fill="#2B79B9"/>
<path d="M100.819 18.5772L98.1465 18.633V18.3949L100.819 18.3391V18.5772Z" fill="#2C7ABA"/>
<path d="M100.819 18.8154L98.1465 18.8712V18.6331L100.819 18.5773V18.8154Z" fill="#2C7BBA"/>
<path d="M100.819 19.0535L98.1465 19.1093V18.8712L100.819 18.8154V19.0535Z" fill="#2D7BBB"/>
<path d="M100.819 19.2916L98.1465 19.3474V19.1093L100.819 19.0535V19.2916Z" fill="#2E7CBB"/>
<path d="M100.819 19.5297L98.1465 19.5855V19.3474L100.819 19.2916V19.5297Z" fill="#2E7DBB"/>
<path d="M100.819 19.7678L98.1465 19.8236V19.5855L100.819 19.5297V19.7678Z" fill="#2F7EBC"/>
<path d="M100.819 20.0059L98.1465 20.0617V19.8236L100.819 19.7678V20.0059Z" fill="#2F7EBC"/>
<path d="M100.819 20.244L98.1465 20.2998V20.0617L100.819 20.0059V20.244Z" fill="#307FBD"/>
<path d="M100.819 20.4821L98.1465 20.5379V20.2998L100.819 20.244V20.4821Z" fill="#3080BD"/>
<path d="M100.819 20.7202L98.1465 20.776V20.5379L100.819 20.4821V20.7202Z" fill="#3181BE"/>
<path d="M100.819 20.9583L98.1465 21.0141V20.776L100.819 20.7202V20.9583Z" fill="#3281BE"/>
<path d="M100.819 21.1965L98.1465 21.2523V21.0142L100.819 20.9584V21.1965Z" fill="#3282BF"/>
<path d="M100.819 21.4345L98.1465 21.4903V21.2522L100.819 21.1964V21.4345Z" fill="#3383BF"/>
<path d="M100.819 21.6727L98.1465 21.7285V21.4904L100.819 21.4346V21.6727Z" fill="#3484C0"/>
<path d="M100.819 21.9107L98.1465 21.9665V21.7284L100.819 21.6726V21.9107Z" fill="#3484C0"/>
<path d="M100.819 22.1487L98.1465 22.2046V21.9664L100.819 21.9106V22.1487Z" fill="#3585C0"/>
<path d="M100.819 22.3868L98.1465 22.4426V22.2045L100.819 22.1487V22.3868Z" fill="#3686C1"/>
<path d="M100.819 22.6249L98.1465 22.6808V22.4426L100.819 22.3868V22.6249Z" fill="#3687C1"/>
<path d="M100.819 22.8631L98.1465 22.9189V22.6808L100.819 22.625V22.8631Z" fill="#3787C2"/>
<path d="M100.819 23.1013L98.1465 23.1571V22.919L100.819 22.8632V23.1013Z" fill="#3788C2"/>
<path d="M100.819 23.3394L98.1465 23.3952V23.1571L100.819 23.1013V23.3394Z" fill="#3889C3"/>
<path d="M100.819 23.5775L98.1465 23.6333V23.3952L100.819 23.3394V23.5775Z" fill="#398AC3"/>
<path d="M100.819 23.8156L98.1465 23.8714V23.6333L100.819 23.5775V23.8156Z" fill="#398AC3"/>
<path d="M100.819 24.0537L98.1465 24.1095V23.8714L100.819 23.8156V24.0537Z" fill="#3A8BC4"/>
<path d="M100.819 24.2918L98.1465 24.3476V24.1095L100.819 24.0537V24.2918Z" fill="#3B8CC4"/>
<path d="M100.819 24.5299L98.1465 24.5857V24.3476L100.819 24.2917V24.5299Z" fill="#3B8DC5"/>
<path d="M100.819 24.768L98.1465 24.8238V24.5857L100.819 24.5299V24.768Z" fill="#3C8DC5"/>
<path d="M100.819 25.0061L98.1465 25.0656V24.8238L100.819 24.7679V25.0061Z" fill="#3C8EC5"/>
<path d="M100.819 25.2442L98.1465 25.3037V25.0656L100.819 25.0061V25.2442Z" fill="#3D8FC6"/>
<path d="M100.819 25.4824L98.1465 25.5419V25.3038L100.819 25.2443V25.4824Z" fill="#3E8FC6"/>
<path d="M100.819 25.7204L98.1465 25.7799V25.5418L100.819 25.4823V25.7204Z" fill="#3E90C7"/>
<path d="M100.819 25.9586L98.1465 26.0181V25.78L100.819 25.7205V25.9586Z" fill="#3F91C7"/>
<path d="M100.819 26.1966L98.1465 26.2561V26.018L100.819 25.9585V26.1966Z" fill="#4092C7"/>
<path d="M100.819 26.4348L98.1465 26.4943V26.2562L100.819 26.1967V26.4348Z" fill="#4092C8"/>
<path d="M100.819 26.6765L98.1465 26.7323V26.4942L100.819 26.4347V26.6765Z" fill="#4193C8"/>
<path d="M100.819 26.9147L98.1465 26.9705V26.7324L100.819 26.6766V26.9147Z" fill="#4294C9"/>
<path d="M100.819 27.1528L98.1465 27.2086V26.9705L100.819 26.9147V27.1528Z" fill="#4295C9"/>
<path d="M100.819 27.3909L98.1465 27.4467V27.2086L100.819 27.1528V27.3909Z" fill="#4395C9"/>
<path d="M100.819 27.629L98.1465 27.6848V27.4467L100.819 27.3909V27.629Z" fill="#4396CA"/>
<path d="M100.819 27.867L98.1465 27.9228V27.6847L100.819 27.6289V27.867Z" fill="#4497CA"/>
<path d="M100.819 28.1052L98.1465 28.161V27.9229L100.819 27.8671V28.1052Z" fill="#4597CA"/>
<path d="M100.819 28.3432L98.1465 28.399V28.1609L100.819 28.1051V28.3432Z" fill="#4598CB"/>
<path d="M100.819 28.5814L98.1465 28.6372V28.3991L100.819 28.3433V28.5814Z" fill="#4699CB"/>
<path d="M100.819 28.8194L98.1465 28.8752V28.6371L100.819 28.5813V28.8194Z" fill="#4799CC"/>
<path d="M100.819 29.0576L98.1465 29.1134V28.8753L100.819 28.8195V29.0576Z" fill="#479ACC"/>
<path d="M100.819 29.2956L98.1465 29.3514V29.1133L100.819 29.0575V29.2956Z" fill="#489BCC"/>
<path d="M100.819 29.5338L98.1465 29.5896V29.3515L100.819 29.2957V29.5338Z" fill="#499CCD"/>
<path d="M100.819 29.7718L98.1465 29.8276V29.5895L100.819 29.5337V29.7718Z" fill="#499CCD"/>
<path d="M100.819 30.01L98.1465 30.0658V29.8277L100.819 29.7719V30.01Z" fill="#4A9DCD"/>
<path d="M100.819 30.2482L98.1465 30.304V30.0659L100.819 30.0101V30.2482Z" fill="#4B9ECE"/>
<path d="M100.819 30.4863L98.1465 30.5421V30.304L100.819 30.2482V30.4863Z" fill="#4B9ECE"/>
<path d="M100.819 30.7244L98.1465 30.7802V30.5421L100.819 30.4863V30.7244Z" fill="#4C9FCE"/>
<path d="M100.819 30.9625L98.1465 31.0183V30.7802L100.819 30.7244V30.9625Z" fill="#4CA0CF"/>
<path d="M100.819 31.2006L98.1465 31.2564V31.0183L100.819 30.9625V31.2006Z" fill="#4DA1CF"/>
<path d="M100.819 31.4387L98.1465 31.4945V31.2564L100.819 31.2006V31.4387Z" fill="#4EA1D0"/>
<path d="M100.819 31.6768L98.1465 31.7326V31.4945L100.819 31.4387V31.6768Z" fill="#4EA2D0"/>
<path d="M100.819 31.9149L98.1465 31.9707V31.7326L100.819 31.6768V31.9149Z" fill="#4FA3D0"/>
<path d="M100.819 32.153L98.1465 32.2088V31.9707L100.819 31.9149V32.153Z" fill="#50A3D1"/>
<path d="M100.819 32.3912L98.1465 32.447V32.2089L100.819 32.1531V32.3912Z" fill="#50A4D1"/>
<path d="M100.819 32.6292L98.1465 32.685V32.4469L100.819 32.3911V32.6292Z" fill="#51A5D1"/>
<path d="M100.819 32.8674L98.1465 32.9232V32.6851L100.819 32.6293V32.8674Z" fill="#52A5D2"/>
<path d="M100.819 33.1054L98.1465 33.1612V32.9231L100.819 32.8673V33.1054Z" fill="#52A6D2"/>
<path d="M100.819 33.3436L98.1465 33.3994V33.1613L100.819 33.1055V33.3436Z" fill="#53A7D2"/>
<path d="M100.819 33.5816L98.1465 33.6374V33.3993L100.819 33.3435V33.5816Z" fill="#53A7D2"/>
<path d="M100.819 33.8198L98.1465 33.8756V33.6375L100.819 33.5817V33.8198Z" fill="#54A8D3"/>
<path d="M100.819 34.0578L98.1465 34.1136V33.8755L100.819 33.8197V34.0578Z" fill="#55A9D3"/>
<path d="M100.819 34.2958L98.1465 34.3517V34.1135L100.819 34.0577V34.2958Z" fill="#55A9D3"/>
<path d="M100.819 34.534L98.1465 34.5898V34.3517L100.819 34.2959V34.534Z" fill="#56AAD4"/>
<path d="M100.819 34.772L98.1465 34.8278V34.5897L100.819 34.5339V34.772Z" fill="#57ABD4"/>
<path d="M100.819 35.0102L98.1465 35.066V34.8279L100.819 34.7721V35.0102Z" fill="#57ABD4"/>
<path d="M100.819 35.2482L98.1465 35.304V35.0659L100.819 35.0101V35.2482Z" fill="#58ACD5"/>
<path d="M100.819 35.4865L98.1465 35.5423V35.3042L100.819 35.2484V35.4865Z" fill="#58ADD5"/>
<path d="M100.819 35.7246L98.1465 35.7804V35.5423L100.819 35.4865V35.7246Z" fill="#59ADD5"/>
<path d="M100.819 35.9627L98.1465 36.0185V35.7804L100.819 35.7246V35.9627Z" fill="#5AAED6"/>
<path d="M100.819 36.2008L98.1465 36.2566V36.0185L100.819 35.9626V36.2008Z" fill="#5AAED6"/>
<path d="M100.819 36.4389L98.1465 36.4947V36.2566L100.819 36.2008V36.4389Z" fill="#5BAFD6"/>
<path d="M100.819 36.6771L98.1465 36.7329V36.4948L100.819 36.439V36.6771Z" fill="#5BB0D6"/>
<path d="M100.819 36.9151L98.1465 36.9709V36.7328L100.819 36.677V36.9151Z" fill="#5CB0D7"/>
<path d="M100.819 37.1533L98.1465 37.2091V36.971L100.819 36.9152V37.1533Z" fill="#5DB1D7"/>
<path d="M100.819 37.3913L98.1465 37.4471V37.209L100.819 37.1532V37.3913Z" fill="#5DB2D7"/>
<path d="M100.819 37.6295L98.1465 37.6853V37.4472L100.819 37.3914V37.6295Z" fill="#5EB2D8"/>
<path d="M100.819 37.8675L98.1465 37.9233V37.6852L100.819 37.6294V37.8675Z" fill="#5EB3D8"/>
<path d="M100.819 38.1057L98.1465 38.1615V37.9234L100.819 37.8676V38.1057Z" fill="#5FB3D8"/>
<path d="M100.819 38.3437L98.1465 38.3995V38.1614L100.819 38.1056V38.3437Z" fill="#60B4D8"/>
<path d="M100.819 38.5819L98.1465 38.6377V38.3996L100.819 38.3438V38.5819Z" fill="#60B5D9"/>
<path d="M100.819 38.82L98.1465 38.8758V38.6377L100.819 38.5819V38.82Z" fill="#61B5D9"/>
<path d="M100.819 39.0581L98.1465 39.1176V38.8758L100.819 38.8199V39.0581Z" fill="#61B6D9"/>
<path d="M100.819 39.2962L98.1465 39.3557V39.1176L100.819 39.0581V39.2962Z" fill="#62B6D9"/>
<path d="M100.819 39.5342L98.1465 39.5938V39.3557L100.819 39.2961V39.5342Z" fill="#63B7DA"/>
<path d="M100.819 39.7724L98.1465 39.8319V39.5938L100.819 39.5343V39.7724Z" fill="#63B8DA"/>
<path d="M100.819 40.0104L98.1465 40.07V39.8319L100.819 39.7723V40.0104Z" fill="#64B8DA"/>
<path d="M100.819 40.2485L98.1465 40.308V40.0699L100.819 40.0104V40.2485Z" fill="#64B9DA"/>
<path d="M100.819 40.4865L98.1465 40.546V40.3079L100.819 40.2484V40.4865Z" fill="#65B9DB"/>
<path d="M100.819 40.7285L98.1465 40.7843V40.5462L100.819 40.4867V40.7285Z" fill="#66BADB"/>
<path d="M100.819 40.9665L98.1465 41.0223V40.7842L100.819 40.7284V40.9665Z" fill="#66BBDB"/>
<path d="M100.819 41.2047L98.1465 41.2605V41.0224L100.819 40.9666V41.2047Z" fill="#67BBDB"/>
<path d="M100.819 41.4428L98.1465 41.4986V41.2605L100.819 41.2047V41.4428Z" fill="#67BCDC"/>
<path d="M100.819 41.6809L98.1465 41.7367V41.4986L100.819 41.4427V41.6809Z" fill="#68BCDC"/>
<path d="M100.819 41.919L98.1465 41.9748V41.7367L100.819 41.6809V41.919Z" fill="#68BDDC"/>
<path d="M100.819 42.1571L98.1465 42.2129V41.9748L100.819 41.9189V42.1571Z" fill="#69BEDC"/>
<path d="M100.819 42.3952L98.1465 42.451V42.2129L100.819 42.1571V42.3952Z" fill="#69BEDD"/>
<path d="M100.819 42.6332L98.1465 42.6891V42.4509L100.819 42.3951V42.6332Z" fill="#6ABFDD"/>
<path d="M100.819 42.8714L98.1465 42.9272V42.6891L100.819 42.6333V42.8714Z" fill="#6BBFDD"/>
<path d="M100.819 43.1097L98.1465 43.1655V42.9274L100.819 42.8716V43.1097Z" fill="#6BC0DD"/>
<path d="M100.819 43.3477L98.1465 43.4035V43.1654L100.819 43.1096V43.3477Z" fill="#6CC0DE"/>
<path d="M100.819 43.5859L98.1465 43.6417V43.4036L100.819 43.3478V43.5859Z" fill="#6CC1DE"/>
<path d="M100.819 43.8239L98.1465 43.8797V43.6416L100.819 43.5858V43.8239Z" fill="#6DC1DE"/>
<path d="M100.819 44.0621L98.1465 44.1179V43.8798L100.819 43.824V44.0621Z" fill="#6DC2DE"/>
<path d="M100.819 44.3001L98.1465 44.3559V44.1178L100.819 44.062V44.3001Z" fill="#6EC2DF"/>
<path d="M100.819 44.5383L98.1465 44.5941V44.356L100.819 44.3002V44.5383Z" fill="#6EC3DF"/>
<path d="M100.819 44.7763L98.1465 44.8321V44.594L100.819 44.5382V44.7763Z" fill="#6FC3DF"/>
<path d="M100.819 45.0145L98.1465 45.0703V44.8322L100.819 44.7764V45.0145Z" fill="#6FC4DF"/>
<path d="M100.819 45.2525L98.1465 45.3083V45.0702L100.819 45.0144V45.2525Z" fill="#70C5DF"/>
<path d="M100.819 45.4907L98.1465 45.5465V45.3084L100.819 45.2526V45.4907Z" fill="#70C5E0"/>
<path d="M100.819 45.7288L98.1465 45.7846V45.5465L100.819 45.4907V45.7288Z" fill="#71C5E0"/>
</g>
</g>
</g>
<defs>
<clipPath id="clip0_477_29552">
<rect width="150" height="45.7192" fill="white"/>
</clipPath>
</defs>
</svg>
